<mxfile host="app.diagrams.net" modified="2023-11-12T05:43:05.570Z" agent="Mozilla/5.0 (Macintosh; Intel Mac OS X 10_15_7) AppleWebKit/537.36 (KHTML, like Gecko) Chrome/118.0.0.0 Safari/537.36" version="22.1.0" etag="7owyb7Rqzqas8WUwn8Pw" type="github">
  <diagram name="Page-1" id="NJUEp7nNB1lZFteMaDju">
    <mxGraphModel>
      <root>
        <mxCell id="0" />
        <mxCell id="1" parent="0" />
      </root>
    </mxGraphModel>
  </diagram>
</mxfile>
